<svg width="43" height="45" viewBox="0 0 43 45" fill="none" xmlns="http://www.w3.org/2000/svg">
<path d="M31.5049 0V0.314392L31.4703 0.374276L26.4111 8.86202H13.8167V15.1698H22.6509L17.3765 24.0194L17.369 24.0327H13.3285V23.5403H17.0919L21.7874 15.663H13.3276V8.37047H26.1339L30.8286 0.493212H7.36946C6.90346 0.493212 6.49519 0.798455 6.35251 1.24509C6.11662 1.98865 6.19168 2.82786 6.63046 3.54564L7.27708 4.60692L6.43416 6.12565C5.9995 6.9108 5.64403 7.7342 5.37102 8.58256C5.0972 9.43175 4.90667 10.3092 4.8044 11.2C4.7978 11.264 4.79368 11.3264 4.79368 11.3888C4.79368 11.9851 5.11699 12.5399 5.6465 12.8244C6.18013 13.1096 6.30797 13.8199 5.91125 14.2774L2.6006 18.0942C1.96387 18.8261 2.33502 19.9788 3.27774 20.1951L3.57961 20.2625C4.36645 20.4421 4.71285 21.3753 4.23366 22.0299L4.11736 22.1912C3.79405 22.632 4.04396 23.2617 4.58006 23.3581L5.44773 23.5128C5.51701 23.5253 5.53515 23.616 5.4766 23.6542L4.78048 24.1059C4.3417 24.3911 4.36232 25.0449 4.81677 25.2994L5.20937 25.5198C5.61598 25.7485 5.85269 26.1769 5.85269 26.6243C5.85269 26.7782 5.82548 26.9312 5.76774 27.0834C5.20937 28.534 5.96074 30.0751 7.27791 30.6108C7.44864 30.679 7.56246 30.8453 7.56246 31.0308V41.182L5.89723 44.093H5.28937V31.3701C5.28937 31.1838 5.17555 31.0183 5.00482 30.9485C3.68436 30.412 2.93134 28.8683 3.49136 27.4145C3.54909 27.2631 3.57631 27.1092 3.57631 26.9553C3.57631 26.507 3.3396 26.0787 2.93134 25.8483L2.53874 25.6279C2.08182 25.3717 2.0612 24.7155 2.5008 24.4311L3.19856 23.9786C3.25795 23.9412 3.2398 23.8497 3.17052 23.8364L2.30121 23.6817C1.76428 23.586 1.51354 22.9539 1.83686 22.5123L1.95398 22.3509C2.434 21.6947 2.08759 20.7598 1.2991 20.5802L0.99641 20.512C0.052041 20.2957 -0.319933 19.1413 0.316794 18.4069L3.63487 14.5826C4.03241 14.1243 3.90457 13.4132 3.36929 13.1271C2.83814 12.8418 2.51565 12.2854 2.51565 11.6882C2.51565 11.6258 2.51977 11.5635 2.52637 11.4994C2.62864 10.607 2.81917 9.72785 3.09382 8.87616C3.36682 8.02531 3.72312 7.20024 4.1586 6.41509L5.004 4.89303L4.35572 3.82926C3.63652 2.65403 3.89138 1.15443 4.89018 0.277796C5.09637 0.0956483 5.36443 0 5.63743 0H31.5049Z" fill="#EAEAEA"/>
<path d="M10.6721 44.093V43.7786L10.7067 43.7187L15.7659 35.231H28.3602V28.9232H19.5269L24.8013 20.0737L24.8087 20.0604H28.8493V20.5527H25.0859L20.3904 28.43H28.8501V35.7225H16.043L11.3484 43.5998H34.8075C35.2735 43.5998 35.6818 43.2946 35.8244 42.8479C36.0603 42.1044 35.9853 41.2652 35.5465 40.5474L34.8999 39.4861L35.7428 37.9674C36.1774 37.1822 36.5329 36.3588 36.8059 35.5105C37.0797 34.6613 37.2703 33.7838 37.3725 32.893C37.3791 32.829 37.3833 32.7666 37.3833 32.7042C37.3833 32.1079 37.06 31.5531 36.5305 31.2687C35.9968 30.9834 35.869 30.2731 36.2657 29.8156L39.5763 25.9989C40.2131 25.2669 39.8419 24.1142 38.8992 23.8979L38.5973 23.8306C37.8105 23.6509 37.4641 22.7177 37.9433 22.0631L38.0596 21.9018C38.3829 21.461 38.133 20.8314 37.5969 20.7349L36.7292 20.5802C36.6599 20.5677 36.6418 20.477 36.7004 20.4388L37.3965 19.9872C37.8352 19.7019 37.8146 19.0481 37.3602 18.7936L36.9676 18.5732C36.561 18.3445 36.3243 17.9162 36.3243 17.4687C36.3243 17.3148 36.3515 17.1618 36.4092 17.0096C36.9676 15.5591 36.2162 14.0179 34.899 13.4822C34.7283 13.414 34.6145 13.2477 34.6145 13.0622V2.91103L36.2797 0H36.8876V12.7229C36.8876 12.9092 37.0014 13.0747 37.1721 13.1446C38.4926 13.681 39.2456 15.2247 38.6856 16.6786C38.6279 16.8299 38.6006 16.9838 38.6006 17.1377C38.6006 17.586 38.8373 18.0143 39.2456 18.2447L39.6382 18.4651C40.0951 18.7213 40.1157 19.3775 39.6761 19.662L38.9784 20.1144C38.919 20.1518 38.9371 20.2433 39.0064 20.2566L39.8757 20.4113C40.4127 20.507 40.6634 21.1391 40.3401 21.5807L40.223 21.7421C39.743 22.3983 40.0894 23.3332 40.8778 23.5128L41.1805 23.581C42.1249 23.7973 42.4969 24.9517 41.8602 25.6861L38.5421 29.5104C38.1445 29.9687 38.2724 30.6798 38.8077 30.9659C39.3388 31.2512 39.6613 31.8076 39.6613 32.4048C39.6613 32.4672 39.6572 32.5296 39.6506 32.5936C39.5483 33.486 39.3578 34.3652 39.0831 35.2169C38.8101 36.0677 38.4538 36.8928 38.0183 37.6779L37.1729 39.2L37.8212 40.2638C38.5404 41.439 38.2856 42.9386 37.2868 43.8152C37.0798 43.9974 36.8125 44.0939 36.5387 44.0939H10.6721V44.093Z" fill="#07ABB3"/>
</svg>
