<svg width="99" height="29" viewBox="0 0 99 29" fill="none" xmlns="http://www.w3.org/2000/svg">
<path d="M0.298889 19.3112H3.96361V20.034H1.02914V22.346H3.96169V23.0669H1.02914V26.6869H0.298889V19.3112Z" fill="#EAEAEA"/>
<path d="M12.3424 21.2317V26.685H11.6563V25.747C11.3642 26.1055 11.0375 26.373 10.6743 26.5532C10.3111 26.7334 9.91524 26.8245 9.48285 26.8245C8.71801 26.8245 8.0627 26.5454 7.52077 25.9854C6.97885 25.4253 6.70789 24.7451 6.70789 23.9428C6.70789 23.158 6.98077 22.4855 7.52846 21.9274C8.07615 21.3693 8.73338 21.0902 9.50207 21.0902C9.94599 21.0902 10.3476 21.1852 10.707 21.3751C11.0664 21.565 11.3815 21.8518 11.6544 22.2316V21.2297H12.3424V21.2317ZM9.56164 21.7665C9.17346 21.7665 8.81601 21.8634 8.48932 22.0553C8.16071 22.2472 7.90128 22.5165 7.70718 22.8634C7.51309 23.2103 7.417 23.5785 7.417 23.9641C7.417 24.3478 7.51501 24.716 7.7091 25.0649C7.90512 25.4156 8.16647 25.6889 8.49701 25.8827C8.82562 26.0784 9.17922 26.1753 9.5578 26.1753C9.9383 26.1753 10.2996 26.0784 10.6397 25.8846C10.9799 25.6908 11.2431 25.4292 11.4276 25.0978C11.6121 24.7664 11.7024 24.3944 11.7024 23.9816C11.7024 23.3498 11.4968 22.8227 11.0836 22.4002C10.6705 21.9797 10.1631 21.7665 9.56164 21.7665Z" fill="#EAEAEA"/>
<path d="M20.99 22.3634L20.4385 22.7084C19.9619 22.0708 19.3104 21.7511 18.4879 21.7511C17.8288 21.7511 17.283 21.9642 16.8468 22.3925C16.4106 22.8188 16.1934 23.3382 16.1934 23.9506C16.1934 24.3479 16.2933 24.7219 16.4932 25.0726C16.693 25.4234 16.9679 25.6947 17.3176 25.8885C17.6674 26.0823 18.0575 26.1792 18.4918 26.1792C19.2854 26.1792 19.935 25.8594 20.4385 25.2218L20.99 25.5881C20.7306 25.9815 20.3847 26.2858 19.9484 26.5009C19.5122 26.7179 19.0164 26.8264 18.4591 26.8264C17.6039 26.8264 16.8948 26.5532 16.3318 26.0048C15.7687 25.4563 15.4862 24.7897 15.4862 24.0048C15.4862 23.4777 15.6188 22.9855 15.8821 22.534C16.1454 22.0805 16.5086 21.7278 16.9679 21.4739C17.4291 21.2201 17.9441 21.0922 18.5148 21.0922C18.8723 21.0922 19.2182 21.1464 19.5506 21.2569C19.8831 21.3673 20.1656 21.5108 20.3981 21.6871C20.6307 21.8635 20.8286 22.0902 20.99 22.3634Z" fill="#EAEAEA"/>
<path d="M28.7134 24.8749L29.2996 25.185C29.1074 25.5668 28.8845 25.873 28.6327 26.1075C28.381 26.3419 28.0966 26.5202 27.7814 26.6404C27.4662 26.7625 27.1088 26.8225 26.711 26.8225C25.8289 26.8225 25.139 26.5319 24.6413 25.9485C24.1436 25.3652 23.8957 24.7063 23.8957 23.9699C23.8957 23.2781 24.1071 22.6618 24.5279 22.1192C25.0622 21.4313 25.7771 21.0863 26.6726 21.0863C27.595 21.0863 28.331 21.439 28.8826 22.1444C29.2746 22.6425 29.4725 23.2645 29.4802 24.0087H24.6144C24.6279 24.6424 24.8277 25.1618 25.2159 25.5668C25.6041 25.9718 26.0845 26.1753 26.6553 26.1753C26.9301 26.1753 27.1991 26.1268 27.4586 26.0299C27.7199 25.933 27.9409 25.8051 28.1235 25.6462C28.306 25.4873 28.5021 25.2315 28.7134 24.8749ZM28.7134 23.406C28.6212 23.032 28.4848 22.7336 28.308 22.5088C28.1312 22.284 27.8948 22.1037 27.6046 21.9681C27.3125 21.8305 27.005 21.7627 26.6841 21.7627C26.1537 21.7627 25.6963 21.9351 25.3158 22.2781C25.0372 22.5281 24.8258 22.9041 24.6836 23.406H28.7134Z" fill="#EAEAEA"/>
<path d="M36.6195 25.311L37.2402 24.935C37.6784 25.747 38.1838 26.154 38.7565 26.154C39.0024 26.154 39.2311 26.0958 39.4483 25.9815C39.6654 25.8672 39.8269 25.7121 39.9402 25.5183C40.0536 25.3245 40.1094 25.1191 40.1094 24.9021C40.1094 24.654 40.0267 24.4118 39.8615 24.1754C39.6328 23.8479 39.2158 23.4545 38.6085 22.9932C37.9993 22.5281 37.6188 22.1929 37.4708 21.9855C37.2114 21.6386 37.0826 21.2627 37.0826 20.8577C37.0826 20.536 37.1595 20.2453 37.3113 19.9798C37.4631 19.7162 37.6784 19.5069 37.9551 19.3558C38.2318 19.2046 38.5316 19.1271 38.8583 19.1271C39.2023 19.1271 39.5251 19.2124 39.8249 19.3849C40.1247 19.5573 40.4418 19.8732 40.7762 20.3344L40.1805 20.7898C39.9057 20.4216 39.6712 20.1794 39.4771 20.0631C39.283 19.9468 39.0716 19.8868 38.8429 19.8868C38.5489 19.8868 38.3068 19.9778 38.1204 20.1581C37.934 20.3383 37.8398 20.5612 37.8398 20.8247C37.8398 20.9856 37.8725 21.1406 37.9397 21.2918C38.0051 21.4429 38.1261 21.6057 38.3029 21.782C38.399 21.8751 38.7142 22.1212 39.2465 22.5184C39.8787 22.9894 40.3131 23.4099 40.5494 23.7761C40.7839 24.1444 40.903 24.5126 40.903 24.8846C40.903 25.4195 40.7012 25.8846 40.2996 26.278C39.896 26.6733 39.4079 26.8691 38.8314 26.8691C38.3875 26.8691 37.9839 26.7489 37.6226 26.5105C37.2575 26.2722 36.9251 25.873 36.6195 25.311Z" fill="#EAEAEA"/>
<path d="M44.1583 19.1252H44.854V23.4312L47.3618 21.2298H48.3842L45.4113 23.8324L48.5571 26.685H47.5771L44.854 24.2296V26.685H44.1583V19.1252Z" fill="#EAEAEA"/>
<path d="M55.6599 24.8749L56.246 25.185C56.0538 25.5668 55.8309 25.873 55.5791 26.1075C55.3274 26.3419 55.043 26.5202 54.7278 26.6404C54.4127 26.7625 54.0552 26.8225 53.6574 26.8225C52.7754 26.8225 52.0855 26.5319 51.5877 25.9485C51.09 25.3652 50.8421 24.7063 50.8421 23.9699C50.8421 23.2781 51.0535 22.6618 51.4743 22.1192C52.0086 21.4313 52.7235 21.0863 53.619 21.0863C54.5414 21.0863 55.2774 21.439 55.829 22.1444C56.221 22.6425 56.4189 23.2645 56.4266 24.0087H51.5589C51.5724 24.6424 51.7722 25.1618 52.1604 25.5668C52.5486 25.9718 53.029 26.1753 53.5998 26.1753C53.8746 26.1753 54.1436 26.1268 54.4031 26.0299C54.6644 25.933 54.8854 25.8051 55.068 25.6462C55.2505 25.4873 55.4485 25.2315 55.6599 24.8749ZM55.6599 23.406C55.5676 23.032 55.4312 22.7336 55.2544 22.5088C55.0776 22.284 54.8412 22.1037 54.551 21.9681C54.2589 21.8305 53.9514 21.7627 53.6305 21.7627C53.1001 21.7627 52.6428 21.9351 52.2623 22.2781C51.9836 22.5281 51.7722 22.9041 51.63 23.406H55.6599Z" fill="#EAEAEA"/>
<path d="M60.1625 19.2047H60.8581V21.2298H61.9612V21.8363H60.8581V26.683H60.1625V21.8363H59.2131V21.2298H60.1625V19.2047Z" fill="#EAEAEA"/>
<path d="M70.0882 22.3634L69.5367 22.7084C69.0601 22.0708 68.4086 21.7511 67.5861 21.7511C66.927 21.7511 66.3812 21.9642 65.945 22.3925C65.5088 22.8208 65.2916 23.3382 65.2916 23.9506C65.2916 24.3479 65.3915 24.7219 65.5914 25.0726C65.7913 25.4234 66.0661 25.6947 66.4158 25.8885C66.7656 26.0823 67.1557 26.1792 67.59 26.1792C68.3837 26.1792 69.0332 25.8594 69.5367 25.2218L70.0882 25.5881C69.8288 25.9815 69.4829 26.2858 69.0466 26.5009C68.6104 26.7179 68.1146 26.8264 67.5573 26.8264C66.7021 26.8264 65.993 26.5532 65.43 26.0048C64.8669 25.4563 64.5844 24.7897 64.5844 24.0048C64.5844 23.4777 64.717 22.9855 64.9803 22.534C65.2436 22.0805 65.6068 21.7278 66.0661 21.4739C66.5273 21.2201 67.0423 21.0922 67.613 21.0922C67.9705 21.0922 68.3164 21.1464 68.6489 21.2569C68.9813 21.3673 69.2638 21.5108 69.4963 21.6871C69.7289 21.8635 69.9249 22.0902 70.0882 22.3634Z" fill="#EAEAEA"/>
<path d="M73.2571 19.1252H73.9527V22.2084C74.2352 21.8344 74.5446 21.5534 74.8829 21.3693C75.2211 21.1832 75.5862 21.0902 75.9821 21.0902C76.3856 21.0902 76.745 21.1929 77.0582 21.4003C77.3715 21.6077 77.6021 21.8867 77.752 22.2355C77.9019 22.5844 77.9749 23.1328 77.9749 23.8769V26.685H77.2792V24.0824C77.2792 23.4545 77.2543 23.034 77.2043 22.8247C77.1178 22.4642 76.9622 22.1929 76.7354 22.0107C76.5086 21.8286 76.2108 21.7375 75.8437 21.7375C75.4229 21.7375 75.0462 21.877 74.7137 22.158C74.3813 22.439 74.1603 22.7859 74.0546 23.2006C73.9873 23.468 73.9547 23.9622 73.9547 24.685V26.685H73.259V19.1252H73.2571Z" fill="#EAEAEA"/>
<path d="M81.5397 18.9857C81.6973 18.9857 81.8337 19.0419 81.9452 19.1562C82.0566 19.2706 82.1143 19.4062 82.1143 19.5671C82.1143 19.724 82.0585 19.8597 81.9452 19.974C81.8337 20.0884 81.6973 20.1446 81.5397 20.1446C81.384 20.1446 81.2514 20.0884 81.138 19.974C81.0266 19.8597 80.9689 19.726 80.9689 19.5671C80.9689 19.4062 81.0247 19.2706 81.138 19.1562C81.2514 19.0419 81.3859 18.9857 81.5397 18.9857ZM81.1938 21.2317H81.8894V26.685H81.1938V21.2317Z" fill="#EAEAEA"/>
<path d="M85.1698 21.2317H85.8654V22.2084C86.1441 21.8344 86.4516 21.5534 86.7898 21.3693C87.128 21.1852 87.4951 21.0902 87.8928 21.0902C88.2964 21.0902 88.6558 21.1929 88.969 21.4003C89.2823 21.6076 89.5129 21.8867 89.6628 22.2375C89.8126 22.5882 89.8857 23.1347 89.8857 23.8769V26.685H89.19V24.0823C89.19 23.4545 89.165 23.0339 89.1131 22.8246C89.0324 22.4642 88.8787 22.1929 88.65 22.0107C88.4213 21.8286 88.1235 21.7375 87.7545 21.7375C87.3336 21.7375 86.957 21.877 86.6226 22.158C86.2901 22.439 86.0691 22.7859 85.9634 23.2006C85.8962 23.4719 85.8635 23.9661 85.8635 24.685V26.685H85.1678V21.2317H85.1698Z" fill="#EAEAEA"/>
<path d="M97.8743 21.2317H98.5699V25.5784C98.5699 26.3439 98.5027 26.904 98.372 27.2586C98.1894 27.7605 97.8724 28.1462 97.4227 28.4175C96.9711 28.6888 96.4291 28.8244 95.7969 28.8244C95.3338 28.8244 94.9167 28.7585 94.5459 28.6268C94.1769 28.495 93.8752 28.3167 93.6427 28.0938C93.4101 27.871 93.1968 27.5454 93.0008 27.1152H93.756C93.9617 27.4756 94.2269 27.7431 94.5516 27.9175C94.8764 28.0919 95.28 28.1791 95.7604 28.1791C96.2351 28.1791 96.6348 28.09 96.9615 27.9117C97.2882 27.7334 97.5207 27.5086 97.661 27.2392C97.8013 26.9698 97.8704 26.5338 97.8704 25.9331V25.6521C97.6091 25.9854 97.2882 26.2431 96.9096 26.4214C96.531 26.5997 96.1294 26.6888 95.7047 26.6888C95.2069 26.6888 94.74 26.5648 94.3018 26.3148C93.8636 26.0668 93.5254 25.7315 93.2871 25.3091C93.0488 24.8885 92.9297 24.4254 92.9297 23.9196C92.9297 23.4138 93.0546 22.9448 93.3025 22.5088C93.5504 22.0727 93.8963 21.7278 94.3345 21.4739C94.7745 21.2201 95.2377 21.0922 95.7258 21.0922C96.1313 21.0922 96.5079 21.1774 96.8577 21.346C97.2074 21.5146 97.5457 21.7937 97.8704 22.1813V21.2317H97.8743ZM95.8219 21.7666C95.4279 21.7666 95.0609 21.8635 94.7227 22.0553C94.3844 22.2472 94.1192 22.5127 93.9271 22.8518C93.7349 23.1909 93.6388 23.5572 93.6388 23.9525C93.6388 24.5513 93.8367 25.0455 94.2345 25.437C94.6323 25.8284 95.1474 26.0241 95.7815 26.0241C96.4215 26.0241 96.9365 25.8304 97.3247 25.4428C97.7148 25.0552 97.9089 24.5455 97.9089 23.9138C97.9089 23.5029 97.8185 23.1367 97.6398 22.813C97.4611 22.4913 97.2074 22.2355 96.8788 22.0495C96.5521 21.8615 96.1985 21.7666 95.8219 21.7666Z" fill="#EAEAEA"/>
<path d="M0.298889 0.364288H7.43232V3.05411H3.0162V5.68579H7.43232V8.33685H3.0162V14.8599H0.298889V0.364288Z" fill="#EAEAEA"/>
<path d="M17.4176 4.13933H20.0849V14.8599H17.4176V13.7262C16.8968 14.2261 16.3741 14.5847 15.8514 14.8056C15.3267 15.0265 14.7598 15.135 14.1487 15.135C12.7766 15.135 11.589 14.5982 10.5859 13.5246C9.58464 12.451 9.08307 11.1158 9.08307 9.51897C9.08307 7.864 9.56734 6.50746 10.5378 5.44936C11.5083 4.39126 12.6844 3.86221 14.0719 3.86221C14.7099 3.86221 15.3075 3.9843 15.8667 4.22654C16.426 4.46878 16.9429 4.83504 17.4195 5.31951V4.13933H17.4176ZM14.6138 6.34661C13.7894 6.34661 13.1033 6.64117 12.5595 7.22836C12.0137 7.81555 11.7408 8.56939 11.7408 9.4899C11.7408 10.4162 12.0175 11.1778 12.5729 11.7766C13.1283 12.3754 13.8105 12.6739 14.6234 12.6739C15.4613 12.6739 16.155 12.3793 16.7065 11.7921C17.2581 11.2049 17.5348 10.4337 17.5348 9.48215C17.5348 8.55002 17.2581 7.79423 16.7065 7.21479C16.1569 6.63536 15.4574 6.34661 14.6138 6.34661Z" fill="#EAEAEA"/>
<path d="M33.1891 6.30593L30.9676 7.53844C30.5506 7.09853 30.1374 6.79235 29.73 6.62181C29.3226 6.45128 28.8441 6.36601 28.2964 6.36601C27.299 6.36601 26.4919 6.66639 25.875 7.26714C25.2581 7.86789 24.9507 8.63723 24.9507 9.57324C24.9507 10.486 25.2466 11.2302 25.8404 11.8057C26.4342 12.3832 27.2125 12.672 28.1792 12.672C29.3725 12.672 30.3027 12.2611 30.9676 11.4395L33.0719 12.8909C31.9323 14.387 30.3219 15.1331 28.2445 15.1331C26.3747 15.1331 24.9103 14.575 23.8514 13.4588C22.7926 12.3425 22.2641 11.0344 22.2641 9.53642C22.2641 8.4977 22.5216 7.54232 23.0366 6.66832C23.5517 5.79432 24.2685 5.1083 25.1909 4.60832C26.1133 4.10834 27.1433 3.86029 28.2829 3.86029C29.338 3.86029 30.2854 4.07152 31.1271 4.49592C31.9688 4.92226 32.6548 5.52495 33.1891 6.30593Z" fill="#EAEAEA"/>
<path d="M43.5434 4.59282L42.8746 5.76527C42.767 5.70132 42.6555 5.64317 42.5383 5.58697C41.9637 5.3176 41.3603 5.18389 40.728 5.18389C39.6845 5.18389 38.7871 5.52303 38.0376 6.19936C37.4899 6.69159 37.0768 7.42993 36.7943 8.41633H41.3584L40.6762 9.60813H36.6578C36.6828 10.8542 37.0787 11.8735 37.8416 12.672C38.0703 12.9103 38.3144 13.1138 38.5757 13.2805L37.9185 14.4297C37.4688 14.168 37.0691 13.8289 36.7174 13.4161C35.7392 12.2708 35.2492 10.9744 35.2492 9.52868C35.2492 8.16827 35.6643 6.95708 36.4926 5.89316C37.5418 4.5405 38.9466 3.86417 40.7069 3.86417C41.7811 3.86417 42.7266 4.10641 43.5434 4.59282Z" fill="#EAEAEA"/>
<path d="M45.052 5.94162C44.61 5.37575 44.1065 4.92422 43.5435 4.59283L42.8747 5.76528C43.2956 6.00558 43.6434 6.30207 43.922 6.65283C44.2718 7.09274 44.537 7.68187 44.7196 8.41634H41.3585L40.6763 9.60815H46.2223C46.2127 8.14309 45.8188 6.92221 45.052 5.94162ZM43.555 12.8251C43.1975 13.139 42.7613 13.3909 42.2501 13.5789C41.739 13.7708 41.2105 13.8638 40.6686 13.8638C39.8826 13.8638 39.185 13.6681 38.5758 13.2785L37.9186 14.4277C38.7199 14.9006 39.675 15.1351 40.7839 15.1351C41.5679 15.1351 42.2674 15.0149 42.8882 14.7746C43.5069 14.5363 44.0642 14.1855 44.5601 13.7262C45.0539 13.2669 45.4921 12.6623 45.8687 11.9143L44.7157 11.3038C44.3025 12.0034 43.9144 12.5092 43.555 12.8251Z" fill="#07ABB3"/>
<path d="M49.9676 0.158875H51.3359V4.13935H53.5055V5.33116H51.3359V14.8599H49.9676V5.33116H48.1016V4.13935H49.9676V0.158875Z" fill="#07ABB3"/>
<path d="M65.8757 6.36598L64.7919 7.04619C63.8541 5.79236 62.5761 5.16447 60.9561 5.16447C59.6609 5.16447 58.5866 5.585 57.7295 6.42412C56.8744 7.26323 56.4458 8.28451 56.4458 9.48601C56.4458 10.267 56.6418 11.0015 57.0358 11.6914C57.4298 12.3812 57.9698 12.9142 58.6558 13.2959C59.3419 13.6758 60.1125 13.8676 60.9638 13.8676C62.5262 13.8676 63.8003 13.2397 64.7899 11.9859L65.8738 12.7049C65.3665 13.4762 64.6823 14.075 63.8272 14.5013C62.9701 14.9277 61.9958 15.1389 60.9004 15.1389C59.2189 15.1389 57.8256 14.6002 56.7187 13.5227C55.6118 12.4452 55.0583 11.1352 55.0583 9.59066C55.0583 8.55195 55.3178 7.5888 55.8347 6.6993C56.3517 5.80979 57.0646 5.11408 57.9698 4.61604C58.8749 4.11606 59.8876 3.86801 61.008 3.86801C61.7113 3.86801 62.3897 3.97653 63.045 4.19358C63.7003 4.41062 64.2557 4.69356 64.7112 5.04044C65.1685 5.38345 65.5548 5.82724 65.8757 6.36598Z" fill="#07ABB3"/>
<path d="M68.5027 0H69.8709V6.05984C70.4244 5.32343 71.0336 4.77307 71.6985 4.40874C72.3634 4.04442 73.0821 3.86225 73.8585 3.86225C74.6541 3.86225 75.3594 4.06573 75.9743 4.47269C76.5893 4.87965 77.0447 5.42615 77.3368 6.1141C77.6308 6.80012 77.7769 7.87566 77.7769 9.34072V14.858H76.4086V9.7438C76.4086 8.50936 76.3606 7.6838 76.2626 7.27103C76.0935 6.56175 75.786 6.02883 75.3382 5.67031C74.8924 5.3118 74.3082 5.13352 73.5837 5.13352C72.7554 5.13352 72.0156 5.4087 71.3603 5.961C70.7049 6.51331 70.2745 7.19545 70.065 8.01131C69.9343 8.53649 69.869 9.50931 69.869 10.9279V14.8599H68.5007V0H68.5027Z" fill="#07ABB3"/>
<path d="M89.659 11.3018L90.8121 11.9123C90.4335 12.6603 89.9973 13.265 89.5014 13.7262C89.0056 14.1855 88.4483 14.5362 87.8296 14.7765C87.2108 15.0168 86.5093 15.137 85.7272 15.137C83.9919 15.137 82.6371 14.5634 81.6589 13.4181C80.6807 12.2727 80.1926 10.9763 80.1926 9.53061C80.1926 8.17019 80.6058 6.959 81.4341 5.89509C82.4833 4.54243 83.8881 3.86609 85.6503 3.86609C87.4625 3.86609 88.9096 4.55987 89.9934 5.94547C90.7621 6.92412 91.1541 8.14694 91.1676 9.612H81.6013C81.6282 10.8581 82.0221 11.8774 82.785 12.6739C83.548 13.4704 84.4915 13.8677 85.6119 13.8677C86.1538 13.8677 86.6804 13.7727 87.1915 13.5828C87.7027 13.3929 88.1389 13.1409 88.4983 12.827C88.8538 12.5092 89.242 12.0034 89.659 11.3018ZM89.659 8.41631C89.4765 7.6799 89.2113 7.09271 88.8615 6.6528C88.5118 6.2129 88.0505 5.85826 87.4779 5.58889C86.9033 5.31952 86.2999 5.1858 85.6676 5.1858C84.6241 5.1858 83.7267 5.52495 82.9772 6.20128C82.4295 6.69351 82.0144 7.43378 81.7339 8.41824H89.659V8.41631Z" fill="#07ABB3"/>
<path d="M93.1968 4.13936H94.5939V5.70518C95.0109 5.08699 95.451 4.62577 95.9122 4.32152C96.3754 4.01533 96.8558 3.86417 97.3593 3.86417C97.7379 3.86417 98.1414 3.98626 98.57 4.22849L97.857 5.39124C97.5707 5.26721 97.3285 5.20327 97.1344 5.20327C96.679 5.20327 96.2389 5.39124 95.8161 5.76913C95.3934 6.14703 95.0705 6.73422 94.8495 7.52876C94.6804 8.1392 94.5959 9.37559 94.5959 11.234V14.8599H93.1988V4.13936H93.1968Z" fill="#07ABB3"/>
</svg>
